<svg xmlns="http://www.w3.org/2000/svg" viewBox="0 0 980 300" role="img" aria-labelledby="title">
<title id="title">CR27 Seguros</title>
<defs>
  <linearGradient id="g1" x1="0" y1="0" x2="1" y2="1"><stop offset="0" stop-color="#082b57"/><stop offset="1" stop-color="#1b76d8"/></linearGradient>
  <linearGradient id="g2" x1="0" y1="1" x2="1" y2="0"><stop offset="0" stop-color="#0b5fcb"/><stop offset="1" stop-color="#11a3ff"/></linearGradient>
</defs>
<g transform="translate(18 18)">
  <path d="M120 0 240 64 223 96 120 44 17 96 0 64Z" fill="url(#g1)"/>
  <path d="M17 96 53 82 53 189 120 242 91 282 17 220Z" fill="url(#g1)"/>
  <path d="M223 96 187 81 187 188 120 242 148 282 223 220Z" fill="url(#g2)"/>
  <path d="M53 189 120 242 187 188 187 220 120 282 53 220Z" fill="url(#g2)"/>
</g>
<text x="300" y="185" font-family="Arial,Helvetica,sans-serif" font-size="160" font-weight="800" letter-spacing="-8" fill="#082b57">CR</text>
<text x="545" y="185" font-family="Arial,Helvetica,sans-serif" font-size="160" font-weight="800" letter-spacing="-8" fill="#0b74db">27</text>
<text x="390" y="265" font-family="Arial,Helvetica,sans-serif" font-size="50" font-weight="500" letter-spacing="28" fill="#082b57">SEGUROS</text>
</svg>